<?xml version="1.0" encoding="UTF-8"?>
<svg width="700pt" height="700pt" version="1.1" viewBox="0 0 700 700" xmlns="http://www.w3.org/2000/svg" xmlns:xlink="http://www.w3.org/1999/xlink">
 <defs>
  <symbol id="g" overflow="visible">
   <path d="m2.6094-0.15625c-0.125 0.074219-0.26562 0.125-0.42188 0.15625-0.14844 0.039062-0.29688 0.0625-0.45312 0.0625-0.46875 0-0.84375-0.12891-1.125-0.39062-0.28125-0.26953-0.42188-0.63281-0.42188-1.0938 0-0.45703 0.14062-0.81641 0.42188-1.0781 0.28125-0.26953 0.65625-0.40625 1.125-0.40625 0.15625 0 0.30469 0.023438 0.45312 0.0625 0.15625 0.03125 0.29688 0.085938 0.42188 0.15625v0.59375c-0.13672-0.09375-0.27344-0.16016-0.40625-0.20312-0.125-0.039063-0.26172-0.0625-0.40625-0.0625-0.26172 0-0.46875 0.085937-0.625 0.25-0.14844 0.16797-0.21875 0.39844-0.21875 0.6875 0 0.29297 0.070313 0.52344 0.21875 0.6875 0.15625 0.16797 0.36328 0.25 0.625 0.25 0.14453 0 0.28125-0.019531 0.40625-0.0625 0.13281-0.039063 0.26953-0.10938 0.40625-0.20312z"/>
  </symbol>
  <symbol id="d" overflow="visible">
   <path d="m1.9219-1.5469c-0.0625-0.03125-0.125-0.050781-0.1875-0.0625-0.0625-0.019531-0.12109-0.03125-0.17188-0.03125-0.17969 0-0.3125 0.058594-0.40625 0.17188-0.09375 0.11719-0.14062 0.27734-0.14062 0.48438v0.98438h-0.6875v-2.1406h0.6875v0.35938c0.082031-0.14453 0.17969-0.25 0.29688-0.3125 0.11328-0.0625 0.25-0.09375 0.40625-0.09375h0.078125c0.03125 0 0.066406 0.007812 0.10938 0.015625z"/>
  </symbol>
  <symbol id="a" overflow="visible">
   <path d="m2.4531-1.0781v0.20312h-1.5938c0.019531 0.15625 0.078125 0.27734 0.17188 0.35938 0.10156 0.074219 0.24219 0.10938 0.42188 0.10938 0.14453 0 0.28906-0.019531 0.4375-0.0625 0.15625-0.039062 0.3125-0.10156 0.46875-0.1875v0.53125c-0.16797 0.0625-0.33594 0.10938-0.5 0.14062-0.15625 0.03125-0.3125 0.046875-0.46875 0.046875-0.38672 0-0.6875-0.097656-0.90625-0.29688-0.21094-0.19531-0.3125-0.47266-0.3125-0.82812 0-0.35156 0.10156-0.62891 0.3125-0.82812 0.20703-0.19531 0.5-0.29688 0.875-0.29688 0.33203 0 0.59766 0.10547 0.79688 0.3125 0.19531 0.19922 0.29688 0.46484 0.29688 0.79688zm-0.6875-0.21875c0-0.13281-0.042969-0.23828-0.125-0.3125-0.074219-0.082031-0.17188-0.125-0.29688-0.125s-0.23047 0.039063-0.3125 0.10938c-0.085938 0.074219-0.13672 0.18359-0.15625 0.32812z"/>
  </symbol>
  <symbol id="k" overflow="visible">
   <path d="m1.2812-0.96875c-0.13672 0-0.24219 0.027344-0.3125 0.078125-0.074219 0.054687-0.10938 0.125-0.10938 0.21875 0 0.085937 0.023437 0.15234 0.078125 0.20312 0.0625 0.042969 0.14453 0.0625 0.25 0.0625 0.125 0 0.22656-0.039062 0.3125-0.125 0.09375-0.09375 0.14062-0.21094 0.14062-0.35938v-0.078125zm1.0469-0.25v1.2188h-0.6875v-0.3125c-0.09375 0.125-0.19922 0.21875-0.3125 0.28125-0.11719 0.0625-0.25781 0.09375-0.42188 0.09375-0.21875 0-0.39844-0.0625-0.53125-0.1875-0.13672-0.13281-0.20312-0.30469-0.20312-0.51562 0-0.25 0.082031-0.42969 0.25-0.54688 0.17578-0.125 0.44531-0.1875 0.8125-0.1875h0.40625v-0.046875c0-0.10156-0.042969-0.17969-0.125-0.23438-0.085937-0.050781-0.21875-0.078125-0.40625-0.078125-0.14844 0-0.28125 0.015625-0.40625 0.046875s-0.24219 0.074219-0.34375 0.125v-0.51562c0.14453-0.03125 0.28906-0.054687 0.4375-0.078125 0.14453-0.019531 0.28906-0.03125 0.4375-0.03125 0.38281 0 0.66016 0.078125 0.82812 0.23438 0.17578 0.14844 0.26562 0.39062 0.26562 0.73438z"/>
  </symbol>
  <symbol id="c" overflow="visible">
   <path d="m1.0781-2.75v0.60938h0.70312v0.5h-0.70312v0.90625c0 0.09375 0.015625 0.16406 0.046875 0.20312 0.039062 0.03125 0.125 0.046875 0.25 0.046875h0.34375v0.48438h-0.57812c-0.27344 0-0.46484-0.054688-0.57812-0.17188-0.11719-0.11328-0.17188-0.30078-0.17188-0.5625v-0.90625h-0.34375v-0.5h0.34375v-0.60938z"/>
  </symbol>
  <symbol id="j" overflow="visible">
   <path d="m1.7812-1.8281v-1.1406h0.6875v2.9688h-0.6875v-0.3125c-0.09375 0.125-0.19922 0.21875-0.3125 0.28125-0.11719 0.0625-0.24609 0.09375-0.39062 0.09375-0.26172 0-0.48047-0.10156-0.65625-0.3125-0.16797-0.21875-0.25-0.48828-0.25-0.8125 0-0.33203 0.082031-0.60156 0.25-0.8125 0.17578-0.20703 0.39453-0.3125 0.65625-0.3125 0.14453 0 0.27344 0.03125 0.39062 0.09375 0.11328 0.054688 0.21875 0.14062 0.3125 0.26562zm-0.45312 1.3906c0.14453 0 0.25391-0.050781 0.32812-0.15625 0.082031-0.11328 0.125-0.26953 0.125-0.46875 0-0.20703-0.042969-0.36328-0.125-0.46875-0.074219-0.10156-0.18359-0.15625-0.32812-0.15625-0.14844 0-0.25781 0.054688-0.32812 0.15625-0.074219 0.10547-0.10938 0.26172-0.10938 0.46875 0 0.19922 0.035156 0.35547 0.10938 0.46875 0.070312 0.10547 0.17969 0.15625 0.32812 0.15625z"/>
  </symbol>
  <symbol id="i" overflow="visible">
   <path d="m1.4688-0.4375c0.14453 0 0.25391-0.050781 0.32812-0.15625 0.082031-0.11328 0.125-0.26953 0.125-0.46875 0-0.20703-0.042969-0.36328-0.125-0.46875-0.074219-0.10156-0.18359-0.15625-0.32812-0.15625-0.14844 0-0.26172 0.054688-0.34375 0.15625-0.074219 0.10547-0.10938 0.26172-0.10938 0.46875 0 0.19922 0.035156 0.35547 0.10938 0.46875 0.082031 0.10547 0.19531 0.15625 0.34375 0.15625zm-0.45312-1.3906c0.09375-0.125 0.19531-0.21094 0.3125-0.26562 0.11328-0.0625 0.24219-0.09375 0.39062-0.09375 0.25781 0 0.47266 0.10547 0.64062 0.3125 0.17578 0.21094 0.26562 0.48047 0.26562 0.8125 0 0.32422-0.089844 0.59375-0.26562 0.8125-0.16797 0.21094-0.38281 0.3125-0.64062 0.3125-0.14844 0-0.27734-0.03125-0.39062-0.09375-0.11719-0.0625-0.21875-0.15625-0.3125-0.28125v0.3125h-0.6875v-2.9688h0.6875z"/>
  </symbol>
  <symbol id="h" overflow="visible">
   <path d="m0.046875-2.1406h0.6875l0.5625 1.4531 0.5-1.4531h0.67188l-0.89062 2.3438c-0.09375 0.23828-0.20312 0.40625-0.32812 0.5-0.11719 0.09375-0.27344 0.14062-0.46875 0.14062h-0.39062v-0.45312h0.21875c0.11328 0 0.19531-0.023437 0.25-0.0625 0.050781-0.03125 0.09375-0.09375 0.125-0.1875l0.015625-0.0625z"/>
  </symbol>
  <symbol id="e" overflow="visible">
   <path d="m2.4688-1.2969v1.2969h-0.67188v-0.98438c0-0.1875-0.007813-0.31641-0.015625-0.39062-0.011719-0.070312-0.027344-0.125-0.046875-0.15625-0.03125-0.039062-0.070313-0.070312-0.10938-0.09375-0.042969-0.03125-0.09375-0.046875-0.15625-0.046875-0.14844 0-0.26172 0.058594-0.34375 0.17188-0.074219 0.10547-0.10938 0.25781-0.10938 0.45312v1.0469h-0.6875v-2.9688h0.6875v1.1406c0.10156-0.125 0.21094-0.21094 0.32812-0.26562 0.11328-0.0625 0.23828-0.09375 0.375-0.09375 0.25 0 0.4375 0.078125 0.5625 0.23438 0.125 0.14844 0.1875 0.36719 0.1875 0.65625z"/>
  </symbol>
  <symbol id="b" overflow="visible">
   <path d="m1.3438-1.7031c-0.14844 0-0.26172 0.058594-0.34375 0.17188-0.085938 0.10547-0.125 0.26172-0.125 0.46875 0 0.19922 0.039062 0.35547 0.125 0.46875 0.082031 0.10547 0.19531 0.15625 0.34375 0.15625 0.14453 0 0.25391-0.050781 0.32812-0.15625 0.082031-0.11328 0.125-0.26953 0.125-0.46875 0-0.20703-0.042969-0.36328-0.125-0.46875-0.074219-0.11328-0.18359-0.17188-0.32812-0.17188zm0-0.48438c0.36328 0 0.64844 0.10156 0.85938 0.29688 0.20703 0.19922 0.3125 0.47656 0.3125 0.82812 0 0.34375-0.10547 0.62109-0.3125 0.82812-0.21094 0.19922-0.49609 0.29688-0.85938 0.29688-0.36719 0-0.65234-0.097656-0.85938-0.29688-0.21094-0.20703-0.3125-0.48438-0.3125-0.82812 0-0.35156 0.10156-0.62891 0.3125-0.82812 0.20703-0.19531 0.49219-0.29688 0.85938-0.29688z"/>
  </symbol>
  <symbol id="f" overflow="visible">
   <path d="m0.35938-2.8438h0.8125l1.0469 1.9531v-1.9531h0.6875v2.8438h-0.8125l-1.0312-1.9531v1.9531h-0.70312z"/>
  </symbol>
  <symbol id="t" overflow="visible">
   <path d="m0.32812-2.1406h0.6875v2.1406h-0.6875zm0-0.82812h0.6875v0.5625h-0.6875z"/>
  </symbol>
  <symbol id="s" overflow="visible">
   <path d="m0.875-1.0938-0.78125-1.0469h0.71875l0.4375 0.64062 0.45312-0.64062h0.71875l-0.76562 1.0469 0.79688 1.0938h-0.71875l-0.48438-0.67188-0.46875 0.67188h-0.71875z"/>
  </symbol>
  <symbol id="r" overflow="visible">
   <path d="m1.7344-2.9688v0.45312h-0.375c-0.09375 0-0.16406 0.015625-0.20312 0.046875-0.042969 0.03125-0.0625 0.09375-0.0625 0.1875v0.14062h0.59375v0.5h-0.59375v1.6406h-0.6875v-1.6406h-0.32812v-0.5h0.32812v-0.14062c0-0.23828 0.0625-0.41016 0.1875-0.51562 0.13281-0.11328 0.34375-0.17188 0.625-0.17188z"/>
  </symbol>
  <symbol id="q" overflow="visible">
   <path d="m2.3125-1.7812c0.082031-0.13281 0.17969-0.23438 0.29688-0.29688 0.125-0.070313 0.25781-0.10938 0.40625-0.10938 0.23828 0 0.42188 0.078125 0.54688 0.23438 0.13281 0.14844 0.20312 0.36719 0.20312 0.65625v1.2969h-0.6875v-1.1094-0.046875-0.078125c0-0.15625-0.027344-0.26562-0.078125-0.32812-0.042969-0.070312-0.10938-0.10938-0.20312-0.10938-0.125 0-0.22656 0.054687-0.29688 0.15625-0.074219 0.10547-0.10938 0.26172-0.10938 0.46875v1.0469h-0.6875v-1.1094c0-0.23828-0.023437-0.39062-0.0625-0.45312-0.042969-0.070312-0.11719-0.10938-0.21875-0.10938-0.13672 0-0.24219 0.058594-0.3125 0.17188-0.0625 0.10547-0.09375 0.25781-0.09375 0.45312v1.0469h-0.6875v-2.1406h0.6875v0.3125c0.082031-0.11328 0.17578-0.20312 0.28125-0.26562 0.11328-0.0625 0.23438-0.09375 0.35938-0.09375 0.14453 0 0.27344 0.039062 0.39062 0.10938 0.11328 0.074219 0.20312 0.17188 0.26562 0.29688z"/>
  </symbol>
  <symbol id="p" overflow="visible">
   <path d="m0.3125-0.82812v-1.3125h0.67188v0.21875 0.4375 0.34375c0 0.17969 0.003906 0.30469 0.015625 0.375 0.007812 0.074219 0.023438 0.13281 0.046875 0.17188 0.03125 0.042969 0.066406 0.074219 0.10938 0.09375 0.039062 0.023438 0.09375 0.03125 0.15625 0.03125 0.14453 0 0.25391-0.050781 0.32812-0.15625 0.082031-0.11328 0.125-0.26562 0.125-0.45312v-1.0625h0.6875v2.1406h-0.6875v-0.3125c-0.10547 0.125-0.21484 0.21875-0.32812 0.28125-0.11719 0.0625-0.24219 0.09375-0.375 0.09375-0.25 0-0.4375-0.078125-0.5625-0.23438s-0.1875-0.375-0.1875-0.65625z"/>
  </symbol>
  <symbol id="o" overflow="visible">
   <path d="m2.4688-1.2969v1.2969h-0.67188v-1c0-0.17578-0.007813-0.30078-0.015625-0.375-0.011719-0.070312-0.027344-0.125-0.046875-0.15625-0.03125-0.039062-0.070313-0.070312-0.10938-0.09375-0.042969-0.03125-0.09375-0.046875-0.15625-0.046875-0.14844 0-0.26172 0.058594-0.34375 0.17188-0.074219 0.10547-0.10938 0.25781-0.10938 0.45312v1.0469h-0.6875v-2.1406h0.6875v0.3125c0.10156-0.125 0.21094-0.21094 0.32812-0.26562 0.11328-0.0625 0.23828-0.09375 0.375-0.09375 0.25 0 0.4375 0.078125 0.5625 0.23438 0.125 0.14844 0.1875 0.36719 0.1875 0.65625z"/>
  </symbol>
  <symbol id="n" overflow="visible">
   <path d="m0.35938-2.8438h1.2188c0.36328 0 0.64062 0.085938 0.82812 0.25 0.19531 0.15625 0.29688 0.38281 0.29688 0.67188 0 0.30469-0.10156 0.53906-0.29688 0.70312-0.1875 0.15625-0.46484 0.23438-0.82812 0.23438h-0.48438v0.98438h-0.73438zm0.73438 0.53125v0.79688h0.40625c0.14453 0 0.25391-0.035156 0.32812-0.10938 0.082031-0.070312 0.125-0.17188 0.125-0.29688s-0.042969-0.21875-0.125-0.28125c-0.074219-0.070313-0.18359-0.10938-0.32812-0.10938z"/>
  </symbol>
  <symbol id="m" overflow="visible">
   <path d="m0.32812-2.1406h0.6875v2.1094c0 0.28125-0.074219 0.49219-0.21875 0.64062-0.13672 0.15625-0.33594 0.23438-0.59375 0.23438h-0.32812v-0.45312h0.10938c0.13281 0 0.22266-0.03125 0.26562-0.09375 0.050781-0.054687 0.078125-0.16406 0.078125-0.32812zm0-0.82812h0.6875v0.5625h-0.6875z"/>
  </symbol>
  <symbol id="l" overflow="visible">
   <path d="m2.0469-2.0625v0.54688c-0.085937-0.0625-0.17188-0.10938-0.26562-0.14062s-0.19531-0.046875-0.29688-0.046875c-0.1875 0-0.33984 0.058594-0.45312 0.17188-0.10547 0.11719-0.15625 0.27344-0.15625 0.46875 0 0.19922 0.050781 0.35547 0.15625 0.46875 0.11328 0.10547 0.26562 0.15625 0.45312 0.15625 0.10156 0 0.20312-0.015625 0.29688-0.046875 0.10156-0.03125 0.19141-0.078125 0.26562-0.14062v0.5625c-0.10547 0.042969-0.21484 0.070312-0.32812 0.09375-0.10547 0.019531-0.21484 0.03125-0.32812 0.03125-0.38672 0-0.6875-0.097656-0.90625-0.29688-0.21094-0.19531-0.3125-0.47266-0.3125-0.82812 0-0.35156 0.10156-0.62891 0.3125-0.82812 0.21875-0.19531 0.51953-0.29688 0.90625-0.29688 0.11328 0 0.22266 0.011719 0.32812 0.03125 0.11328 0.023438 0.22266 0.054688 0.32812 0.09375z"/>
  </symbol>
 </defs>
 <g>
  <path d="m396.02 560 27.301-292.48h118.55l-191.87-267.52-191.87 267.52h118.55l27.301 292.48z" fill-rule="evenodd"/>
  <use x="158.132813" y="571.699219" xlink:href="#g"/>
  <use x="160.996094" y="571.699219" xlink:href="#d"/>
  <use x="162.917969" y="571.699219" xlink:href="#a"/>
  <use x="165.5625" y="571.699219" xlink:href="#k"/>
  <use x="168.195313" y="571.699219" xlink:href="#c"/>
  <use x="170.058594" y="571.699219" xlink:href="#a"/>
  <use x="172.703125" y="571.699219" xlink:href="#j"/>
  <use x="176.851563" y="571.699219" xlink:href="#i"/>
  <use x="179.644531" y="571.699219" xlink:href="#h"/>
  <use x="183.542969" y="571.699219" xlink:href="#g"/>
  <use x="186.40625" y="571.699219" xlink:href="#e"/>
  <use x="189.183594" y="571.699219" xlink:href="#b"/>
  <use x="193.21875" y="571.699219" xlink:href="#f"/>
  <use x="196.484375" y="571.699219" xlink:href="#t"/>
  <use x="197.820313" y="571.699219" xlink:href="#s"/>
  <use x="158.132813" y="575.597656" xlink:href="#r"/>
  <use x="159.832031" y="575.597656" xlink:href="#d"/>
  <use x="161.753906" y="575.597656" xlink:href="#b"/>
  <use x="164.433594" y="575.597656" xlink:href="#q"/>
  <use x="169.855469" y="575.597656" xlink:href="#c"/>
  <use x="171.71875" y="575.597656" xlink:href="#e"/>
  <use x="174.496094" y="575.597656" xlink:href="#a"/>
  <use x="178.496094" y="575.597656" xlink:href="#f"/>
  <use x="181.761719" y="575.597656" xlink:href="#b"/>
  <use x="184.441406" y="575.597656" xlink:href="#p"/>
  <use x="187.214844" y="575.597656" xlink:href="#o"/>
  <use x="191.351563" y="575.597656" xlink:href="#n"/>
  <use x="194.207031" y="575.597656" xlink:href="#d"/>
  <use x="196.132813" y="575.597656" xlink:href="#b"/>
  <use x="198.808594" y="575.597656" xlink:href="#m"/>
  <use x="200.148438" y="575.597656" xlink:href="#a"/>
  <use x="202.792969" y="575.597656" xlink:href="#l"/>
  <use x="205.105469" y="575.597656" xlink:href="#c"/>
 </g>
</svg>
